<svg xmlns="http://www.w3.org/2000/svg" viewBox="0 0 24 24" fill="none" stroke="currentColor" stroke-width="2" stroke-linecap="round" stroke-linejoin="round">
  <path d="M12 2c-1.5 0-2.5 1-2.5 2.5S10.5 7 12 7s2.5-1 2.5-2.5S13.5 2 12 2z"/>
  <path d="M12 7c-3 0-5.5 2.5-5.5 5.5s2.5 5.5 5.5 5.5 5.5-2.5 5.5-5.5S15 7 12 7z"/>
  <path d="M8 12h8"/>
  <path d="M7.5 9.5h9"/>
  <path d="M7.5 14.5h9"/>
  <circle cx="9.5" cy="10.5" r="0.5" fill="currentColor"/>
  <circle cx="14.5" cy="10.5" r="0.5" fill="currentColor"/>
  <path d="M5 8l-2-1"/>
  <path d="M19 8l2-1"/>
  <path d="M5 16l-2 1"/>
  <path d="M19 16l2 1"/>
</svg>
